<?xml version="1.0" encoding="UTF-8"?>
<svg xmlns="http://www.w3.org/2000/svg" xmlns:xlink="http://www.w3.org/1999/xlink" version="1.1" width="512" height="512" x="0" y="0" viewBox="0 0 64 64" style="enable-background:new 0 0 512 512" xml:space="preserve" class="">
  <g>
    <g data-name="Layer 5">
      <path fill="#e88f15" d="M51.45 21.21A19.46 19.46 0 0 0 18.5 7.94a19.31 19.31 0 0 0-6 14 1.5 1.5 0 0 0 1.5 1.5h10.6A1.5 1.5 0 0 0 26.1 22a5.89 5.89 0 0 1 5.9-5.93h.24a6 6 0 0 1 5.65 5.66A5.91 5.91 0 0 1 35 27a20.25 20.25 0 0 0-9.81 17.21 1.5 1.5 0 0 0 1.5 1.5h10.59a1.5 1.5 0 0 0 1.5-1.5A6.53 6.53 0 0 1 42 38.64a19.49 19.49 0 0 0 9.45-17.43z" opacity="1" data-original="#e81542" class=""/>
      <circle cx="32" cy="54.72" r="6.78" fill="#e88f15" opacity="1" data-original="#e81542" class=""/>
      <path d="M51.45 21.21A19.46 19.46 0 0 0 18.5 7.94a19.31 19.31 0 0 0-6 14 1.5 1.5 0 0 0 1.5 1.5h10.6A1.5 1.5 0 0 0 26.1 22a5.89 5.89 0 0 1 5.9-5.93h.24a6 6 0 0 1 5.65 5.66A5.91 5.91 0 0 1 35 27a20.25 20.25 0 0 0-9.81 17.21 1.5 1.5 0 0 0 1.5 1.5h10.59a1.5 1.5 0 0 0 1.5-1.5A6.53 6.53 0 0 1 42 38.64a19.49 19.49 0 0 0 9.45-17.43zm-11 14.86a9.61 9.61 0 0 0-4.59 6.66h-7.57a17.29 17.29 0 0 1 8.29-13.14 8.92 8.92 0 0 0 4.31-8 9 9 0 0 0-8.53-8.54 8.92 8.92 0 0 0-6.53 2.48 8.81 8.81 0 0 0-2.6 4.91H15.6A16.46 16.46 0 0 1 32 5.5h.65a16.47 16.47 0 0 1 7.85 30.56zM32 47.93a6.79 6.79 0 1 0 6.78 6.79A6.79 6.79 0 0 0 32 47.93zm0 10.57a3.79 3.79 0 1 1 3.78-3.78A3.78 3.78 0 0 1 32 58.5z" fill="#000000" opacity="1" data-original="#000000"/>
    </g>
  </g>
</svg>
