<svg id="_-earth" viewBox="0 0 64 64" xmlns="http://www.w3.org/2000/svg"><g><path d="m36 63-17-2-11-5-5-16 5-9 8 1-3-17 10-14 10 3 5 5 4 11 10-7 6 2 3 6-2 8 2 4-4 19z" fill="#9e4718"/><g fill="#ad4d19"><path d="m42 20-16 31 10 12 21-11 4-19-2-4 2-8-3-6-6-2z"/><path d="m16 32 18 16 2 15-17-2-11-5-5-16 5-9z"/></g></g><path d="m60.06 28.884 1.91-7.641c.058-.232.031-.477-.076-.69l-3-6c-.119-.237-.327-.417-.578-.501l-6-2c-.299-.099-.629-.052-.89.129l-8.933 6.252-3.554-9.775c-.05-.137-.129-.262-.233-.365l-5-5c-.117-.117-.261-.203-.42-.251l-9.999-3c-.407-.122-.852.029-1.101.377l-10 14c-.156.218-.217.49-.171.755l2.765 15.666-6.656-.832c-.404-.054-.8.149-.998.506l-5 9c-.133.239-.162.523-.081.784l5 16c.085.271.282.494.541.612l11 5c.094.043.194.071.297.083l17 2c.039.004.078.007.117.007.161 0 .32-.039.464-.114l21-11c.265-.138.453-.388.515-.68l4-19c.046-.221.017-.451-.084-.653l-1.834-3.669zm-7.899-14.776 5.13 1.71 2.367 4.735-10.461 5.231-5.648-5.648 8.611-6.028zm-28.763-11.945 9.073 2.722 4.115 4.115-8.885 8.885-13.047-3.479zm-9.141 14.207 12.951 3.454 4.181 13.472c.133.429.528.704.955.704.098 0 .198-.015.297-.045.527-.164.822-.724.659-1.251l-4.166-13.424 8.463-8.463 3.314 9.113-10.638 20.611c-.253.491-.061 1.094.43 1.347.146.076.303.111.458.111.362 0 .712-.197.89-.542l10.211-19.784 5.673 5.673-4.811 30.793-6.32 3.31-1.811-13.583c-.032-.237-.147-.456-.327-.615l-17.74-15.769-2.667-15.113zm.892 28.953 7.224-6.321 10.685 9.498 1.781 13.356-15.078-1.774zm-6.602-13.247 7.021.877 5.299 4.71-7.039 6.159-9.426-4.284 4.146-7.462zm-3.925 9.759 8.557 3.89 4.2 13.439-8.557-3.889zm51.497 9.498-10.792 5.653 4.582-29.322 9.594-4.797-1.472 5.89c-.058.232-.031.477.076.69l1.844 3.688-3.831 18.198z"/></svg>