<svg id="_4-fire" viewBox="0 0 64 64" xmlns="http://www.w3.org/2000/svg"><g><path d="m22.624 63s-14-4-14-19c0-11 4-14 4-14s0 8 7 11c0 0-7-13 2-21s7-19 7-19 16 8 15 27c0 0 2-7 10-8 0 0-7 10-2 15s7 18-7 28z" fill="#e6294f"/><path d="m27 63s-7-10 2-17c0 0-1 6 3 6s4-8-2-12c-4.852-3.234 3-12 3-12s0 8 7 12c8.939 5.108 0 23 0 23z" fill="#fac437"/></g><path d="m52.332 34.293c-4.347-4.347 2.047-13.627 2.112-13.72.227-.324.241-.751.037-1.089s-.585-.528-.98-.476c-4.57.571-7.325 2.93-8.913 5.051-1.202-16.597-15.362-23.877-15.516-23.954-.338-.168-.743-.132-1.046.094-.303.227-.452.605-.386.978.019.105 1.772 10.562-6.68 18.075-6.807 6.051-5.02 14.797-3.443 19.3-3.819-3.201-3.892-8.301-3.893-8.553 0-.379-.214-.725-.553-.895s-.745-.133-1.047.095c-.18.135-4.4 3.431-4.4 14.8 0 15.574 14.578 19.92 14.725 19.962.089.025.182.038.275.038h22c.208 0 .412-.065.581-.187 8.503-6.073 10.734-12.748 11.109-17.278.389-4.705-1.137-9.396-3.983-12.242zm-24.786 27.707c-1.056-1.731-4.454-8.243.369-13.636.087 1.135.386 2.422 1.182 3.362.706.833 1.71 1.273 2.905 1.273 1.667 0 2.983-1.059 3.521-2.831.952-3.146-.645-8.12-4.966-11.001-.661-.44-1.014-1-1.111-1.762-.259-2.031 1.402-4.904 2.844-6.903.565 2.867 2.243 7.523 7.216 10.365 7.191 4.109 1.228 18.16-.137 21.132h-11.822zm26.776-15.63c-.336 4.064-2.354 10.055-10.02 15.63h-2.737c1.983-4.519 7.113-18.193-1.068-22.868-6.392-3.652-6.495-10.83-6.496-11.132 0-.415-.256-.786-.643-.934-.386-.148-.825-.043-1.102.267-.218.244-5.341 6.02-4.795 10.324.17 1.342.838 2.41 1.986 3.175 3.501 2.334 4.886 6.363 4.161 8.757-.283.937-.824 1.411-1.606 1.411-.612 0-1.05-.18-1.377-.564-.918-1.081-.771-3.451-.636-4.272.066-.406-.123-.813-.476-1.022-.354-.21-.799-.183-1.125.07-7.442 5.788-4.753 13.516-3.106 16.789h-2.509c-1.447-.453-13.148-4.539-13.148-18 0-6.1 1.271-9.611 2.303-11.458.585 2.816 2.296 7.231 7.303 9.377.392.167.845.069 1.132-.244s.344-.774.143-1.148c-.066-.123-6.529-12.39 1.784-19.779 7.059-6.274 7.671-14.213 7.517-17.895 3.956 2.566 13.595 10.369 12.82 25.095-.027.508.332.955.834 1.039.495.081.986-.222 1.126-.711.016-.057 1.512-5.068 6.966-6.805-1.872 3.376-4.744 10.128-.635 14.237 1.914 1.914 3.813 5.721 3.404 10.663z"/></svg>