<svg height="512" viewBox="0 0 48 48" width="512" xmlns="http://www.w3.org/2000/svg"><g id="_19-magic-circle" data-name="19-magic-circle"><circle cx="24" cy="24" fill="#7f3f98" r="23"/><circle cx="24" cy="24" fill="#b465ff" r="18"/><path d="m37 31-13-22-13 22z" fill="#ffd241"/><path d="m37 17-13 22-13-22z" fill="#ffd241"/><path d="m24 0a24 24 0 1 0 24 24 24.0275 24.0275 0 0 0 -24-24zm0 46a22 22 0 1 1 22-22 22.02489 22.02489 0 0 1 -22 22z"/><path d="m37 32a1.00047 1.00047 0 0 0 .86133-1.50879l-3.8357-6.49121 3.8357-6.49121a1.00047 1.00047 0 0 0 -.86133-1.50879h-7.70166l-4.437-7.50879a1.04016 1.04016 0 0 0 -1.72266 0l-4.43702 7.50879h-7.70166a1.00047 1.00047 0 0 0 -.86133 1.50879l3.8357 6.49121-3.8357 6.49121a1.00047 1.00047 0 0 0 .86133 1.50879h7.70166l4.437 7.50879a1.00077 1.00077 0 0 0 1.72266 0l4.43702-7.50879zm-1.75293-2h-4.76691l2.38349-4.03363zm0-12-2.38342 4.03363-2.38349-4.03363zm-11.24707-7.03418 2.97461 5.03418h-5.94922zm-11.24707 7.03418h4.76691l-2.38349 4.03363zm0 12 2.38342-4.03363 2.38349 4.03363zm11.24707 7.03418-2.97461-5.03418h5.94922zm-4.15643-7.03418-3.54529-6 3.54529-6h8.31286l3.54529 6-3.54529 6z"/><path d="m6.43457 19.92676a1.03914 1.03914 0 0 0 1.23926-.68067 16.95094 16.95094 0 0 1 2-4.40234.99961.99961 0 0 0 -1.6836-1.07813 18.88451 18.88451 0 0 0 -2.23632 4.92188.95355.95355 0 0 0 .68066 1.23926z"/><path d="m31.01172 8.50879a17.0045 17.0045 0 0 1 4.07617 2.60351 1.02241 1.02241 0 0 0 1.41016-.10546 1.03482 1.03482 0 0 0 -.10547-1.41016 19.02214 19.02214 0 0 0 -4.55469-2.91016 1.0004 1.0004 0 0 0 -.82617 1.82227z"/><path d="m21.52832 7.17871a17.38478 17.38478 0 0 1 4.83887-.01562.9999.9999 0 0 0 .27734-1.98047 19.408 19.408 0 0 0 -5.40332.01758 1.06473 1.06473 0 0 0 -.8457 1.13281c-.01068.84583 1.08398.85351 1.13281.8457z"/><path d="m40.29883 19.14551a1.06655 1.06655 0 0 0 1.24316.67285.99014.99014 0 0 0 .67285-1.24316 18.96472 18.96472 0 0 0 -2.2666-4.90723.99979.99979 0 0 0 -1.67773 1.08789 16.95673 16.95673 0 0 1 2.02832 4.38965z"/><path d="m6.999 23.99805a.99963.99963 0 0 0 -1-.998h-.00193a1.00006 1.00006 0 0 0 -.99807 1.00195 19.01252 19.01252 0 0 0 .77539 5.34961 1.007 1.007 0 0 0 1.24219.67578.98207.98207 0 0 0 .67578-1.24218 17.05862 17.05862 0 0 1 -.69336-4.78716z"/><path d="m12.834 11.18066a17.02761 17.02761 0 0 1 4.05957-2.6289 1.00018 1.00018 0 0 0 -.83789-1.81641 19.071 19.071 0 0 0 -4.53613 2.9375 1.00238 1.00238 0 0 0 -.09668 1.41113 1.06871 1.06871 0 0 0 1.41113.09668z"/><path d="m42.999 23.92676a.96844.96844 0 0 0 -1-.96289 1.03072 1.03072 0 0 0 -.999 1.03613 17.01129 17.01129 0 0 1 -.68359 4.78809 1.001 1.001 0 0 0 .67871 1.24121.95384.95384 0 0 0 1.24121-.67871 22.72106 22.72106 0 0 0 .76267-5.39059z"/><path d="m39.68945 32.88574a1.001 1.001 0 0 0 -1.38183.29981 17.12806 17.12806 0 0 1 -3.167 3.65722.95389.95389 0 0 0 -.0996 1.41016 1.04654 1.04654 0 0 0 1.41015.09961 19.06583 19.06583 0 0 0 3.53809-4.085.99931.99931 0 0 0 -.29981-1.3818z"/><path d="m31.07422 39.46289a16.81088 16.81088 0 0 1 -4.6377 1.36328.9917.9917 0 0 0 -.84863 1.13184 1.09947 1.09947 0 0 0 1.13184.84863 18.87251 18.87251 0 0 0 5.18847-1.52539 1.00024 1.00024 0 0 0 -.834-1.81836z"/><path d="m21.59863 40.832a16.8708 16.8708 0 0 1 -4.64063-1.35446 1.00032 1.00032 0 1 0 -.83008 1.82031 18.87528 18.87528 0 0 0 5.19141 1.51465 1.12264 1.12264 0 0 0 1.12988-.85059.976.976 0 0 0 -.85058-1.12991z"/><path d="m9.71191 33.21484a.99954.99954 0 1 0 -1.67968 1.084 19.0282 19.0282 0 0 0 3.54589 4.07816 1.05693 1.05693 0 0 0 1.41016-.10156 1.01256 1.01256 0 0 0 -.10156-1.41016 17.06282 17.06282 0 0 1 -3.17481-3.65044z"/></g></svg>