<svg id="_-wood" viewBox="0 0 64 64" xmlns="http://www.w3.org/2000/svg"><path d="m19.093 52c19.053 10.978 30.72-15.589 30.72-15.589l-6.33.962c8.964-7.512 10.5-18.151 10.5-18.151l-6.83 1.827c5-8.643 1.206-20.049 1.206-20.049s-11.794 2.423-16.794 11.067l-1.83-6.817s-8.464 6.647-10.5 18.151l-2.33-5.952s-16.865 23.573 2.188 34.551z" fill="#99b61e"/><g><path d="m54.625 18.476c-.251-.223-.599-.305-.922-.218l-4.692 1.254c3.616-8.542.423-18.38.274-18.827-.16-.481-.653-.77-1.15-.664-.462.095-10.597 2.255-16.2 9.654l-1.258-4.684c-.087-.324-.331-.583-.65-.689s-.669-.046-.934.162c-.324.255-7.272 5.807-10.123 15.58l-1.158-2.959c-.134-.341-.443-.582-.808-.627-.367-.048-.724.112-.937.41-.161.226-15.945 22.69.32 34.583.447.327 1.071.229 1.397-.217s.229-1.072-.217-1.397c-6.109-4.467-7.979-11.117-5.559-19.766 1.251-4.472 3.384-8.364 4.651-10.441l1.62 4.137c.163.417.582.674 1.03.63.446-.044.808-.38.886-.821 1.494-8.441 6.641-14.239 8.972-16.493l1.408 5.244c.105.391.435.679.835.732.397.05.794-.141.997-.491 3.931-6.795 12.454-9.606 15.234-10.364.735 2.781 2.56 11.539-1.377 18.346-.203.35-.174.788.072 1.109s.662.462 1.052.357l5.254-1.405c-.792 3.143-3.25 10.487-9.824 15.997-.344.288-.454.77-.27 1.178.185.408.614.641 1.062.577l4.426-.673c-2.751 5.174-12.113 20.185-25.69 14.796-.516-.204-1.095.047-1.299.561s.047 1.095.561 1.299c2.298.912 4.481 1.31 6.542 1.31 14.095 0 22.461-18.625 22.556-18.842.146-.333.1-.721-.122-1.01-.222-.29-.586-.433-.944-.38l-3.143.478c7.051-7.35 8.394-16.127 8.453-16.535.048-.333-.074-.667-.326-.891z"/><path d="m35.099 39.182c.541-.11.891-.638.78-1.18-.11-.541-.636-.892-1.18-.78l-6.669 1.358 4.913-8.688 8.086-1.072c.547-.072.933-.575.86-1.123-.072-.547-.578-.929-1.123-.86l-6.59.873 6.03-10.662c.271-.48.103-1.091-.378-1.363-.48-.271-1.091-.102-1.363.378l-6.149 10.873-2.615-6.469c-.207-.512-.787-.758-1.302-.553-.512.207-.759.79-.552 1.302l3.211 7.945-4.801 8.489-2.547-6.788c-.194-.517-.769-.778-1.288-.584-.517.194-.779.771-.584 1.288l3.136 8.355-12.773 22.586c-.271.48-.103 1.091.378 1.363.155.088.325.129.491.129.349 0 .688-.183.872-.508l12.784-22.605 8.373-1.705z"/></g></svg>