<svg id="_2-water-2" viewBox="0 0 64 64" xmlns="http://www.w3.org/2000/svg"><g fill="#32addb"><path d="m63 56s-10 7-28 7-34-16.072-34-30c0-27 26-32 26-32s-11 10-9 20c0 0 5-8 12-10 0 0-6 14 0 20 0 0 1-4 6-8 0 0-4 26 27 33z"/><circle cx="41" cy="10" r="3"/><circle cx="53" cy="4" r="3"/><circle cx="47" cy="23" r="4"/></g><g><path d="m63.981 55.807c-.077-.388-.375-.695-.761-.782-29.691-6.704-26.388-30.849-26.232-31.873.062-.407-.132-.812-.488-1.017-.358-.206-.803-.173-1.125.084-3.219 2.575-4.866 5.164-5.665 6.806-3.687-6.001 1.156-17.507 1.209-17.631.152-.354.086-.766-.169-1.055-.255-.29-.654-.403-1.024-.301-4.956 1.416-8.889 5.575-10.965 8.197.188-8.443 8.816-16.408 8.912-16.496.331-.302.422-.786.221-1.187s-.646-.616-1.082-.535c-.269.052-26.812 5.475-26.812 32.983 0 7.023 3.952 14.858 10.572 20.958 6.926 6.382 15.829 10.042 24.428 10.042 18.107 0 28.154-6.888 28.573-7.181.324-.228.484-.624.408-1.013zm-28.981 6.193c-17.773 0-33-15.946-33-29 0-20.256 14.853-27.694 21.765-30.059-3.241 3.751-8.213 10.914-6.745 18.255.08.401.397.713.801.787.399.071.811-.105 1.027-.453.043-.068 3.929-6.189 9.436-8.81-1.469 4.292-3.993 13.984 1.009 18.986.254.255.629.35.97.256.347-.095.616-.369.706-.716.009-.032.752-2.771 3.888-5.892-.073 6.638 1.99 24.59 25.507 31.019-3.753 1.955-12.51 5.626-25.363 5.626z"/><path d="m41 14c2.206 0 4-1.794 4-4s-1.794-4-4-4-4 1.794-4 4 1.794 4 4 4zm0-6c1.103 0 2 .897 2 2s-.897 2-2 2-2-.897-2-2 .897-2 2-2z"/><path d="m53 8c2.206 0 4-1.794 4-4s-1.794-4-4-4-4 1.794-4 4 1.794 4 4 4zm0-6c1.103 0 2 .897 2 2s-.897 2-2 2-2-.897-2-2 .897-2 2-2z"/><path d="m42 23c0 2.757 2.243 5 5 5s5-2.243 5-5-2.243-5-5-5-5 2.243-5 5zm5-3c1.654 0 3 1.346 3 3s-1.346 3-3 3-3-1.346-3-3 1.346-3 3-3z"/><path d="m27.462 50.721c-13.58-7.071-15.453-19.728-15.471-19.854-.074-.546-.563-.929-1.125-.856-.547.074-.931.575-.857 1.122.074.56 1.994 13.795 16.529 21.362.147.077.306.113.461.113.361 0 .71-.196.888-.538.255-.49.065-1.094-.425-1.349z"/><path d="m34.371 45.071c-4.461-1.784-6.382-9.239-6.401-9.314-.135-.536-.678-.86-1.213-.727-.535.135-.861.677-.727 1.212.086.348 2.186 8.521 7.599 10.687.121.049.247.071.371.071.396 0 .772-.237.929-.629.205-.513-.045-1.095-.558-1.3z"/></g></svg>